<?xml version="1.0" encoding="UTF-8"?>
<svg id="Layer_1" data-name="Layer 1" xmlns="http://www.w3.org/2000/svg" viewBox="0 0 288 288">
  <defs>
    <style>
      .cls-1 {
        fill: #ec008c;
      }
    </style>
  </defs>
  <rect class="cls-1" x="-.89" y="-.45" width="288.89" height="288.45"/>
  <g>
    <path d="M-.09,288.34v-6.63c1.52-2.4,1.72-5.13,1.18-8.2.42.3,1.18,1.42,1.2,2l.23,5.3c14.37-9.51,25.36-15.5,41.03-22.32l24.82-10.81c-3.23-1.1-5.79-1.53-9.11-2.27l4.98-.16,6.01-.02,5.12.04c-1.72-1.59-2.73-2.54-4.01-3.26l-8.18-4.63,4.64.96-3.67-2.09,9.21,2.66c-.61-.94-1.7-2.24-2.56-3.13l-4.06-4.2,5,2.51c.02.23.21-.88-.01-1.06l-1.39-1.19c.18-.1,1.49-.25,2.02.06l6.71,3.93c-1.29-3.09-5.37-4.8-7.72-5.96-.53-.26-.73-2.01-.41-2.41.38-.47,1.6-.18,2.18.16l.99.59c.16.1.27-.6.1-.68l-.8-.38c-1.1-.53-2.17-1.53-1.96-2.59.26-1.31,1.22-1.9,2.53-2.57l-1.03-1.06c-.2-.21-.13-.3.78-.75-.32-2.58-.59-5.38-2.21-7.95l.34,8.66.76.71c.15.14.23.57.02.54-.27-.05-1.18-.3-1.22-.49l-1.16-5.89-.06,2.01c0,.3-.74-.02-1.16-.08l-1.53,5.18.08-6.62-1.22.02c-.21,0,.44-1.13.39-1.33l-1.3-4.95c.28,5.18-2.11,6.99-1.47,8.77.1.26-1.24-.2-1.28-.42l.84-3.3-1.85-2.64-.69,3.24c-.03.16-.88.22-.93.06-.08-.24-.15-.73-.08-1.04l1.18-4.95c-1.52.81-1.96,1.89-2.21,3.3l-.19-4.45-2.72,5.4.72-5.43-1.99,3.08c-1.68-.13-3.39,1.13-3.77,2.87s-1.81,1.88-2.74,2.89l-18.41,19.92c-9.48,10.26-18.55,20.42-27.27,31.31-.95,1.19-1.71,2.17-2.7,2.93v-7.65l28.36-32.88,8-9.98c1.47-1.84,3.41-3.79,5.05-5.41l3.99-3.94c1.96-1.94,4.37-3.55,5.08-6.71l-4.02,2.94,2.88-3.9c-2.54.97-3.22,2.75-5.31,2.22l1.45-2.12-6.32,1.36,1.71-1.35-4.02.36,6.98-5.61-1.5-.47,2.72-1.85c-1.62-1.1-3.11.91-3.45,1.88-.12.35-1.05.79-1.39,1.15l-4.18,4.31c-.33.34-2.1-.12-2.29-.31,1.66-.62,2.75-1.63,4.31-3.74l-5.12,2.14c-.23.1-1.08.07-1.27-.06s-.33-.58-.12-.68l.85-.44c1.16-.6,2.28-1.86,2.82-3.02-1.49,1.13-7.44,1.94-6.68,0,5.33-2.87,3.4-3.37,6.89-4.72,1.67-.64,3.3-1.61,4.68-2.35-7.95-2.22-8.8,1.65-14.65,1.71l3.94-1.65c-2.37.05-4.03-.35-5.62-1.05l7.65-1.6c3.01-.63,5.66-.88,8.55-2.19-4.67-.73-8.37-1.03-12.5-1.43l5.04-.29.06-1.37c1.59,2.11,4.49.88,6.9,1.38l4.17.87-1.68-2.97-.77-1.06c-2.16-2.97.84,1.43-.61,1.1-2.87-.66-8-1.78-10.99-2.82,3.85.45,7.65,1.22,11.27,1.87-5.57-4.85-.49-.03-5.67-3.84-1.91-1.4-4.2-1.83-5.69-3.83,3.4,1.31,8.06,4,11.06,5.93,1.61,1.04,2.84,1.85,4.88,2.21l-2.96-2.76,1.78-.33c.33-.06.91.57,1.48,1.06.52-.97,1.23-3.65.31-4.6-1.44-1.47-5.78-7.97-5.68-10.44l5.15,6.21c1.48,1.78,2.72,3.69,4.28,5.8,6.41-2.49,1.46-12.1,4.16-14.87l1.02,11.79,1.81-1.08-.09-7.6,1.4,6.15c2.33-1.63.88-10.42,2.43-12.34l-.2,8.4,2-7.35.87,1.69c.3-.16,1.03-.7,1.29-.43l1.31,1.36c.51.53,1.21,1.56,1.76,1.49,1.45-.18,1.99-3.1,2.46-2.84l1.23.68,3.16-4.56c.53-.77,3.12-.08,3.93.07,1.65-2.15,3.69-2.3,6.05-1.18,4,1.89-.15.92,5.23,6.62l.97-.64c.19-.12.69.58.63.8l-1.06,3.69c-2.55.26-6.22,5.42-4.64,7.99l4.09-3.22c.65-.51,1.1-2.13,1.08-2.84.13.04.96.82,1.11.56l.87-1.52c2.08,2.59-3.57,3.93-6.36,7.75.11.51,1.12,1.65,1.56,1.39l2.29-1.39-2.41,2.94c1.13-.36,2.62-1.34,3.65-2.05,2.99-.15.84-2.05,4.61-2.22l-7.66,5.56c-1.03.75-1.21,3.19-1.01,5.01,4.02-1.59,7.72-3.33,11.5-5.2.29-.75.38-1.07.54-.9.12.12.61.62.61.6,0-.01-.65.87-.81.95l-10.36,4.8c-.29.33-.53,1.73-.52,2.15l5.96-2.74c1.74-.8,2.73-3.46,5.28-3.2-5.17,4.77-6.16,3.98-11.95,7.26,2.69,2.11,4.73-.99,7.31-.22l-5.91,2.41-1.62.62c-.42.16-.06,2.3.46,2.22l13.73-2.13c-2.27,1.95-16.32,2.17-15.93,4.2,4.29-.11,7.46-.42,10.82.03l-7.05.33c-.49.02-1.54.54-2.18.88h11.51c-.85,1.84-11.19-.46-13.26.97l7.97,1.47c-1.47.73-6.76-1.01-6.95.14l-.22,1.33c1.71.28,3.19.63,4.43,1.34-.97,1-2.14,1.37-3.09,1.3l-.86,1.5c-.55.95-3.61-1.11-5.69.27,1.95,1.5,3.46,2.19,3.68,4.75l-2.99-2.01.87,2.35-3.41-3.07c.43,1.47.55,2.87.54,3.84,2.14,1.55,5.95,7.01,6.38,9.48l1.19.17c.3.04.01,1.21.02,1.57l.05,4.1c.68-1.31.89-1.66.72-.77.76,1.3,1.35,2.38.97,2.96-.4.62-.97,1.26-.65,1.4l1.15.52c.93.42-.4-5.84.31-7.13l.65,2.72c1.28-1.83.63-4,.33-5.88-.19-1.14,1.3-3.06-1.35-4.5l1.51-.47c1-.31-.9-.5-.3-2.32.51-1.56.22,1.46,1.62,1.36-.46.49-.89.89-1.06,1.25s.47,1.25.7,1.58l.64.91c.13.18-.64.9-.61,1.15.25,2.09.34,5.76.09,8.35,1.67-.83,3.53-8.36.74-8.93,1.21-.5,1.79-1.16,1.92-2.18l.85-6.53,1.53.42c-1.43,2.97-1.06,6.14-1.35,9.08l-.51,5.13,1.2-1.12-.72,3.48c4.18-.57,8.38-19.44,11.19-17.15-1.67.63-5.8,10.17-6.46,12.88,2.02-2.81,3.52-5.31,5.2-8.01l1.22,1.31c.14.16-1.08.53-1.23.78l-7.24,12.19c2.82,3.52,15.62-16.43,15.66-11.49,0,.18.03.28-.13.37-.14.07-1.14.37-1.27.5l-6.91,7.29.64,1.09c-1.93,1.86-3.67,3.52-4.94,5.58l12.57-8.02-.9,2.27-9.4,5.94c-.36.23-1.11.88-.95,1.21l.57,1.25c-.92-.52-2.24-1.08-3.12-.73-.73.3-1.89,1.79-1.99,2.31,1.36.93,2.2,1.47,3.12,2.37.86.84,3.2-.34,4.22-1.34l1.75.58c1.96-.78,3.77-1.16,5.82-1.41,3.17-.39,5.95-1.89,9.3-1.86l-5.71,1.87-7.66,2.51c5.38.39,13.92-3.37,17.54-2l-10.78,1.71c-.19.03-.79,1.44-.88,1.26-.86-1.61-1.36.75-5.35.68-2.45,1.04-1.27-2.15-5.38.59,1.05,1.02,2.46,2.31,3.32,3.02.29.24,1.74-.32,1.81-.69l.28-1.59.94,2.55c.15.41,1.49.14,2.46.12l-.79-1.76c1.14.37,2.44.72,3.37.72h10.4c.66,0,1.46.43,2.02,1.05l-5.66-.23-6.98.11c1.07.95,2.42.63,3.91.54.81.14,2.16,1.23,2.83,1.86l8,1.22-4.02,2.31-.23-1.92c-1.99-.42-4.44-.62-6.69-.58l-1.8.03c-.25,0-.11.71-.12,1.07l-.9.25c-.23.06.72,1.23.91,1.11l2.02-1.31c1.71.64,3.57,1.07,5.43,1.35-.71.87-1.54,2.32-1.94,3.46l3.47-.03c-.13-.94-.35-1.51-.06-1.5s.87-.09.95.08l.41.88c.16.34.23,1.35-.01,1.63l-1.63,1.85-3.45-.67.93,1.29c.16.22,0,.67-.05,1.03l.76,3.01c.44-.45.57-.57.7-.75s1.2.42,1.01.53-.73.65-.68.87l.6,2.52-4.92-2.21c1.48,2.01,2.56,3.44,1.84,5.67-1.21-3.06-5.36-4.64-4.97-3.17.08.31.33,1.26.29,1.12,1.17-1.86,2.07-.1,2.52.81.3.62-.71,1.56-1.4,2.05.19,1.56-.3,3.4-1.5,4.82-2.08-1.93-3.61-3.17-6.68-4.91l.53,1.99-3.69-2.32,1.32,2.73-3.69-2.08,6.81,8.02c-3.5-.99-7.35-8.96-11.24-8.75.92,1.1,1.62,1.92,2.3,2.94l6.01,8.98c-2.75-.85-4-2.8-5.22-5.26l-.9,1.33c-1.02-1.94-1.88-3.8-3.88-2.81l5.33,11.89c-.94-.58-2.15-1.39-2.69-1.93l-2.95-5.87c-1.31,2.47.79,3.69,1.31,5.88-2.58-.66-.71-3.61-3.74-4.46.92-1.48.07-3.35-1.3-4.03-.21-1.03-.57-2.37-1.73-3l2.5,10.71c.35,1.51,1.01,2.94,1.64,4.4-1.9-.82-1.75-2.96-2.47-4.51l-1.75-3.8.05,2.24c.05,2.51.5,4.76,1.68,7.03-1.33-.17-1.78-1.56-2-2.96l-1.19-7.43c-.44-2.76-.55-5.4-2.05-7.73l-.22,7.73c.17.26.79.81.68,1.04l-.52,1.11c.42,1.19.98,2.03.45,3.28-2.97-2.79.14-13.6-2-14.38l-.37,15.7c-.01.47.35,1.55.42,1.77-.3.39-1,1.16-.72,1.4l.96.82c-3.6.86-.19-7.07-3.64-8.82l-1.06,7.21-.56-7.07c-.05-.62-2.14.05-2.13.73s.28,1.58.55,2.42c-1.1-.35-1.12-1.72-1.55-3.74l-2.23,6.51c1.46.64.98.75-.43.79-.57-2.73,1.72-5.15,1.66-8.29-1.36,2.41-2.29,4.65-3.31,7.02.8,1.11.91,1.57-.72.59.28-3.47,4.03-7.15,1.9-8.9-.8-.66-2.1-.85-2.8-.3-.39.31-.82,1.05-.61,1.29l.69.8c-2.1.14-2.85,1.53-3.55,3.15l-.99,2.29c-2.68-.68,4.95-8.25,4.21-11.46l-1.82,2.49c.08-1.27.31-2.22.68-3.71l-4.97,4.51c-.72.66-1.12,1.65-1.52,2.85-.07-.08-.49-.86-.52-1.21s.47-1.11.79-1.43l5.85-5.91c-2.26-.34-3.11,1.47-4.53,2.75l-1.15,1.04c-.16.14-.33-.12-1.06-.75l-3.3,3.52c-.43-.19-1.48-3.22-.62-3.82,1.23-.86,3.43-2.03,4.81-2.79-.02-2.23,1.56-3.01,3.25-4.09,1.94-1.24,3.73-2.63,5.57-4.01-1.88-.44-3.26,1.37-4.75,1.62l-6.23,1.05c-1.46.25-3.22,1.24-4.15,1.89l-2.12-.61c1.67-.88,3.25-1.46,5.56-2.37-2.11-.56-4.37-.55-6.32.49.59-1.21,1.32-2.51,1.91-3.42,4.65-.05,8.52-.1,12.92-1.69-1.41-.78-2.61-.24-3.96-.33-3.62-.25-7.18-.32-10.61.2l1.79-2.34c-12.4,4.84-23.97,9.94-35.45,16.21-6.18,3.37-11.7,7.23-17.45,11.15l-6.72,4.58ZM62.35,175.53c2.08-.63,2.39-3.89,1.71-5.29l2.17-3.23c-.02-.18-.76-.33-.88-.17l-.45.59c-.4-2.14-.81-3.64-2.1-5.22-.65,3.01-1.1,5.41-1.16,8.26,0,.61.92,1.83.47,2.18l-1.9,1.48c-.47.37-.93,1.77-1.19,2.39l3.32-1ZM68.36,171.76l1.36-5.92-2.23,2.29c-.33.34-.84,1.65-.62,2.04s.75.89,1.48,1.59ZM73.19,171.27l-1.96,4.36c2.75-2.15,3.35-5.41,2.41-8.77l-1.62,3.7,1.17.72ZM69.33,184.28l2.36-1.62,2.61-2.2-2.26-.28c-2.38-.29,5.39-4.25,2.9-7.57l-3.13,5.32c-1.99,3.37,1.18-.15-2.48,6.35ZM64.9,182.37c2.85-1.54,3-2.73,3.29-4.84l1.27-1.36c.27-.29-.2-1.24-.4-1.46-.54.37-1.21,1.19-1.35.86l-.78-1.8c-3.11.72-.05,7.49-1.89,7.76l-1.87.28,2.61,1.76c.52.35.05,1.8.15,2.78.86.19,2.36-1.44,2.45-2.15l-3.47-1.82ZM79.14,177.14l1.87.18-.41-3.56c-2.94.55-3.75,8.82-2.47,7.76l.62-.51.38-3.87ZM61.67,177.82c.13-.16.35-.78.42-.97s-.95-.57-1.13-.46c-.96.6-2.8,2.65-1.67,4.27l2.37-2.84ZM72.97,184.79c1.58-.79,2.46-2.18,1.69-3.6-2.06,1.99-3.82,3.75-5.47,5.58,2.6,1.18,2.36-1.28,3.78-1.99ZM81,189.68c1.25-1.93,1.8-4.68,1.39-6.76-1.56.55-1.8,1.93-2.26,3.46l-.66,2.23c-.14.47.99,1.29,1.53,1.07ZM75.67,192.07l.45-2.28c.38.92.4,1.6.75,1.5.26-.07,1.42-.4,1.61-.59.91-.95.8-4.06-.23-5.09l-1.6,2.21c-.28.38-1.22-.03-1.87-.16l-2.55,4.76,3.46-.35ZM41.62,187.52c-4.89-.53-9.23.59-13.22,2.25l13.22-2.25ZM81.42,195.81l3.84-3.33-6.46.61c-.31.03-1.19,1.42-.94,1.6s.9.62,1.2.54l.95-.25c.41.57,1.09,1.11,1.41.83ZM38.46,197.64c2.1-.72,3.7-1.97,4.9-3.78-1.97.66-4.75.81-4.9,3.78ZM86.85,229.67c1.56-5.19-4.14-7.67-5.95-13.98-.56-1.94-.88-2.75-2.18-4.1l-2.83-2.96c1.08,4.16,1.47,8.01,3.95,11.27l4.25,5.61c-2.17-1.46-3.37-3.79-5.81-4.8,2.96,3.51,5.67,6.26,8.58,8.96ZM85.53,231.14c-1.98-1.7-4.01-3.27-6.53-4.61,1.7,2.06,3.26,4.48,6.53,4.61ZM101.09,230.11c-1.05-.26-2.64-.38-3.72-.16-.88.18-1.65,1.55-2.14,2.88,2.7,1.46,4.44-.6,5.86-2.72ZM100.6,244.18l1.43,2.03.34-1.24c.06-.21.44-.71.49-.78l-4.16-1.78-2.3,3.04,1.69.43c.71.18.9.18-.07-.52l2.58-1.18ZM121.53,256.35l-5.58-1.74c-2.17-1.43-4.26-2.53-6.98-2.36l3.89,1.72c2.44,1.74,5.45,4.03,8.66,2.38ZM66.68,261.48l-6.78-.21c-.17,0-1,.91-.82.92l1.02.07c2.47.17,4.75.32,6.59-.78ZM78.33,276.93l3.26-8.11c.2-.49-.53-1.78-1.06-2.17-2.04,2.72-3.65,5.34-5.28,8.21l3.08,2.07ZM83.83,278.06c-.75-5.22,1.21-6.55.58-9.67-.04-.22-.97.03-1.03.25l-.25.89-1.08,7.13c-.09.57-.09,1.74.31,1.98s1.55-.04,1.47-.57Z"/>
    <path d="M105.73,233.36c-.55.28-2,.04-2.17-.2,6.39-2.39,9.97-5.15,16.09-7.91.22-.1,1.27.44,1.51.38s-.19.54-.33.77c-.13.2-.84-.17-1.15-.25l-13.95,7.2Z"/>
    <path d="M116.05,232.54c-2.92,1.49-5.73,3.15-9.11,3.19l12.05-5.25c1.92-.84,3.91-2.11,6.08-1.52-3.08.96-6.02,2.04-9.03,3.58Z"/>
  </g>
  <g>
    <path d="M282.75,287.66h-6.63c-2.4-1.52-5.13-1.72-8.2-1.18.3-.42,1.42-1.18,2-1.2l5.3-.23c-9.51-14.37-15.5-25.36-22.32-41.03l-10.81-24.82c-1.1,3.23-1.53,5.79-2.27,9.11l-.16-4.98-.02-6.01.04-5.12c-1.59,1.72-2.54,2.73-3.26,4.01l-4.63,8.18.96-4.64-2.09,3.67,2.66-9.21c-.94.61-2.24,1.7-3.13,2.56l-4.2,4.06,2.51-5c.23-.02-.88-.21-1.06.01l-1.19,1.39c-.1-.18-.25-1.49.06-2.02l3.93-6.71c-3.09,1.29-4.8,5.37-5.96,7.72-.26.53-2.01.73-2.41.41-.47-.38-.18-1.6.16-2.18l.59-.99c.1-.16-.6-.27-.68-.1l-.38.8c-.53,1.1-1.53,2.17-2.59,1.96-1.31-.26-1.9-1.22-2.57-2.53l-1.06,1.03c-.21.2-.3.13-.75-.78-2.58.32-5.38.59-7.95,2.21l8.66-.34.71-.76c.14-.15.57-.23.54-.02-.05.27-.3,1.18-.49,1.22l-5.89,1.16,2.01.06c.3,0-.02.74-.08,1.16l5.18,1.53-6.62-.08.02,1.22c0,.21-1.13-.44-1.33-.39l-4.95,1.3c5.18-.28,6.99,2.11,8.77,1.47.26-.1-.2,1.24-.42,1.28l-3.3-.84-2.64,1.85,3.24.69c.16.03.22.88.06.93-.24.08-.73.15-1.04.08l-4.95-1.18c.81,1.52,1.89,1.96,3.3,2.21l-4.45.19,5.4,2.72-5.43-.72,3.08,1.99c-.13,1.68,1.13,3.39,2.87,3.77s1.88,1.81,2.89,2.74l19.92,18.41c10.26,9.48,20.42,18.55,31.31,27.27,1.19.95,2.17,1.71,2.93,2.7h-7.65l-32.88-28.36-9.98-8c-1.84-1.47-3.79-3.41-5.41-5.05l-3.94-3.99c-1.94-1.96-3.55-4.37-6.71-5.08l2.94,4.02-3.9-2.88c.97,2.54,2.75,3.22,2.22,5.31l-2.12-1.45,1.36,6.32-1.35-1.71.36,4.02-5.61-6.98-.47,1.5-1.85-2.72c-1.1,1.62.91,3.11,1.88,3.45.35.12.79,1.05,1.15,1.39l4.31,4.18c.34.33-.12,2.1-.31,2.29-.62-1.66-1.63-2.75-3.74-4.31l2.14,5.12c.1.23.07,1.08-.06,1.27s-.58.33-.68.12l-.44-.85c-.6-1.16-1.86-2.28-3.02-2.82,1.13,1.49,1.94,7.44,0,6.68-2.87-5.33-3.37-3.4-4.72-6.89-.64-1.67-1.61-3.3-2.35-4.68-2.22,7.95,1.65,8.8,1.71,14.65l-1.65-3.94c.05,2.37-.35,4.03-1.05,5.62l-1.6-7.65c-.63-3.01-.88-5.66-2.19-8.55-.73,4.67-1.03,8.37-1.43,12.5l-.29-5.04-1.37-.06c2.11-1.59.88-4.49,1.38-6.9l.87-4.17-2.97,1.68-1.06.77c-2.97,2.16,1.43-.84,1.1.61-.66,2.87-1.78,8-2.82,10.99.45-3.85,1.22-7.65,1.87-11.27-4.85,5.57-.03.49-3.84,5.67-1.4,1.91-1.83,4.2-3.83,5.69,1.31-3.4,4-8.06,5.93-11.06,1.04-1.61,1.85-2.84,2.21-4.88l-2.76,2.96-.33-1.78c-.06-.33.57-.91,1.06-1.48-.97-.52-3.65-1.23-4.6-.31-1.47,1.44-7.97,5.78-10.44,5.68l6.21-5.15c1.78-1.48,3.69-2.72,5.8-4.28-2.49-6.41-12.1-1.46-14.87-4.16l11.79-1.02-1.08-1.81-7.6.09,6.15-1.4c-1.63-2.33-10.42-.88-12.34-2.43l8.4.2-7.35-2,1.69-.87c-.16-.3-.7-1.03-.43-1.29l1.36-1.31c.53-.51,1.56-1.21,1.49-1.76-.18-1.45-3.1-1.99-2.84-2.46l.68-1.23-4.56-3.16c-.77-.53-.08-3.12.07-3.93-2.15-1.65-2.3-3.69-1.18-6.05,1.89-4,.92.15,6.62-5.23l-.64-.97c-.12-.19.58-.69.8-.63l3.69,1.06c.26,2.55,5.42,6.22,7.99,4.64l-3.22-4.09c-.51-.65-2.13-1.1-2.84-1.08.04-.13.82-.96.56-1.11l-1.52-.87c2.59-2.08,3.93,3.57,7.75,6.36.51-.11,1.65-1.12,1.39-1.56l-1.39-2.29,2.94,2.41c-.36-1.13-1.34-2.62-2.05-3.65-.15-2.99-2.05-.84-2.22-4.61l5.56,7.66c.75,1.03,3.19,1.21,5.01,1.01-1.59-4.02-3.33-7.72-5.2-11.5-.75-.29-1.07-.38-.9-.54.12-.12.62-.61.6-.61-.01,0,.87.65.95.81l4.8,10.36c.33.29,1.73.53,2.15.52l-2.74-5.96c-.8-1.74-3.46-2.73-3.2-5.28,4.77,5.17,3.98,6.16,7.26,11.95,2.11-2.69-.99-4.73-.22-7.31l2.41,5.91.62,1.62c.16.42,2.3.06,2.22-.46l-2.13-13.73c1.95,2.27,2.17,16.32,4.2,15.93-.11-4.29-.42-7.46.03-10.82l.33,7.05c.02.49.54,1.54.88,2.18v-11.51c1.84.85-.46,11.19.97,13.26l1.47-7.97c.73,1.47-1.01,6.76.14,6.95l1.33.22c.28-1.71.63-3.19,1.34-4.43,1,.97,1.37,2.14,1.3,3.09l1.5.86c.95.55-1.11,3.61.27,5.69,1.5-1.95,2.19-3.46,4.75-3.68l-2.01,2.99,2.35-.87-3.07,3.41c1.47-.43,2.87-.55,3.84-.54,1.55-2.14,7.01-5.95,9.48-6.38l.17-1.19c.04-.3,1.21-.01,1.57-.02l4.1-.05c-1.31-.68-1.66-.89-.77-.72,1.3-.76,2.38-1.35,2.96-.97.62.4,1.26.97,1.4.65l.52-1.15c.42-.93-5.84.4-7.13-.31l2.72-.65c-1.83-1.28-4-.63-5.88-.33-1.14.19-3.06-1.3-4.5,1.35l-.47-1.51c-.31-1-.5.9-2.32.3-1.56-.51,1.46-.22,1.36-1.62.49.46.89.89,1.25,1.06s1.25-.47,1.58-.7l.91-.64c.18-.13.9.64,1.15.61,2.09-.25,5.76-.34,8.35-.09-.83-1.67-8.36-3.53-8.93-.74-.5-1.21-1.16-1.79-2.18-1.92l-6.53-.85.42-1.53c2.97,1.43,6.14,1.06,9.08,1.35l5.13.51-1.12-1.2,3.48.72c-.57-4.18-19.44-8.38-17.15-11.19.63,1.67,10.17,5.8,12.88,6.46-2.81-2.02-5.31-3.52-8.01-5.2l1.31-1.22c.16-.14.53,1.08.78,1.23l12.19,7.24c3.52-2.82-16.43-15.62-11.49-15.66.18,0,.28-.03.37.13.07.14.37,1.14.5,1.27l7.29,6.91,1.09-.64c1.86,1.93,3.52,3.67,5.58,4.94l-8.02-12.57,2.27.9,5.94,9.4c.23.36.88,1.11,1.21.95l1.25-.57c-.52.92-1.08,2.24-.73,3.12.3.73,1.79,1.89,2.31,1.99.93-1.36,1.47-2.2,2.37-3.12.84-.86-.34-3.2-1.34-4.22l.58-1.75c-.78-1.96-1.16-3.77-1.41-5.82-.39-3.17-1.89-5.95-1.86-9.3l1.87,5.71,2.51,7.66c.39-5.38-3.37-13.92-2-17.54l1.71,10.78c.03.19,1.44.79,1.26.88-1.61.86.75,1.36.68,5.35,1.04,2.45-2.15,1.27.59,5.38,1.02-1.05,2.31-2.46,3.02-3.32.24-.29-.32-1.74-.69-1.81l-1.59-.28,2.55-.94c.41-.15.14-1.49.12-2.46l-1.76.79c.37-1.14.72-2.44.72-3.37v-10.4c0-.66.43-1.46,1.05-2.02l-.23,5.66.11,6.98c.95-1.07.63-2.42.54-3.91.14-.81,1.23-2.16,1.86-2.83l1.22-8,2.31,4.02-1.92.23c-.42,1.99-.62,4.44-.58,6.69l.03,1.8c0,.25.71.11,1.07.12l.25.9c.06.23,1.23-.72,1.11-.91l-1.31-2.02c.64-1.71,1.07-3.57,1.35-5.43.87.71,2.32,1.54,3.46,1.94l-.03-3.47c-.94.13-1.51.35-1.5.06s-.09-.87.08-.95l.88-.41c.34-.16,1.35-.23,1.63.01l1.85,1.63-.67,3.45,1.29-.93c.22-.16.67,0,1.03.05l3.01-.76c-.45-.44-.57-.57-.75-.7s.42-1.2.53-1.01.65.73.87.68l2.52-.6-2.21,4.92c2.01-1.48,3.44-2.56,5.67-1.84-3.06,1.21-4.64,5.36-3.17,4.97.31-.08,1.26-.33,1.12-.29-1.86-1.17-.1-2.07.81-2.52.62-.3,1.56.71,2.05,1.4,1.56-.19,3.4.3,4.82,1.5-1.93,2.08-3.17,3.61-4.91,6.68l1.99-.53-2.32,3.69,2.73-1.32-2.08,3.69,8.02-6.81c-.99,3.5-8.96,7.35-8.75,11.24,1.1-.92,1.92-1.62,2.94-2.3l8.98-6.01c-.85,2.75-2.8,4-5.26,5.22l1.33.9c-1.94,1.02-3.8,1.88-2.81,3.88l11.89-5.33c-.58.94-1.39,2.15-1.93,2.69l-5.87,2.95c2.47,1.31,3.69-.79,5.88-1.31-.66,2.58-3.61.71-4.46,3.74-1.48-.92-3.35-.07-4.03,1.3-1.03.21-2.37.57-3,1.73l10.71-2.5c1.51-.35,2.94-1.01,4.4-1.64-.82,1.9-2.96,1.75-4.51,2.47l-3.8,1.75,2.24-.05c2.51-.05,4.76-.5,7.03-1.68-.17,1.33-1.56,1.78-2.96,2l-7.43,1.19c-2.76.44-5.4.55-7.73,2.05l7.73.22c.26-.17.81-.79,1.04-.68l1.11.52c1.19-.42,2.03-.98,3.28-.45-2.79,2.97-13.6-.14-14.38,2l15.7.37c.47.01,1.55-.35,1.77-.42.39.3,1.16,1,1.4.72l.82-.96c.86,3.6-7.07.19-8.82,3.64l7.21,1.06-7.07.56c-.62.05.05,2.14.73,2.13s1.58-.28,2.42-.55c-.35,1.1-1.72,1.12-3.74,1.55l6.51,2.23c.64-1.46.75-.98.79.43-2.73.57-5.15-1.72-8.29-1.66,2.41,1.36,4.65,2.29,7.02,3.31,1.11-.8,1.57-.91.59.72-3.47-.28-7.15-4.03-8.9-1.9-.66.8-.85,2.1-.3,2.8.31.39,1.05.82,1.29.61l.8-.69c.14,2.1,1.53,2.85,3.15,3.55l2.29.99c-.68,2.68-8.25-4.95-11.46-4.21l2.49,1.82c-1.27-.08-2.22-.31-3.71-.68l4.51,4.97c.66.72,1.65,1.12,2.85,1.52-.08.07-.86.49-1.21.52s-1.11-.47-1.43-.79l-5.91-5.85c-.34,2.26,1.47,3.11,2.75,4.53l1.04,1.15c.14.16-.12.33-.75,1.06l3.52,3.3c-.19.43-3.22,1.48-3.82.62-.86-1.23-2.03-3.43-2.79-4.81-2.23.02-3.01-1.56-4.09-3.25-1.24-1.94-2.63-3.73-4.01-5.57-.44,1.88,1.37,3.26,1.62,4.75l1.05,6.23c.25,1.46,1.24,3.22,1.89,4.15l-.61,2.12c-.88-1.67-1.46-3.25-2.37-5.56-.56,2.11-.55,4.37.49,6.32-1.21-.59-2.51-1.32-3.42-1.91-.05-4.65-.1-8.52-1.69-12.92-.78,1.41-.24,2.61-.33,3.96-.25,3.62-.32,7.18.2,10.61l-2.34-1.79c4.84,12.4,9.94,23.97,16.21,35.45,3.37,6.18,7.23,11.7,11.15,17.45l4.58,6.72ZM169.93,225.22c-.63-2.08-3.89-2.39-5.29-1.71l-3.23-2.17c-.18.02-.33.76-.17.88l.59.45c-2.14.4-3.64.81-5.22,2.1,3.01.65,5.41,1.1,8.26,1.16.61,0,1.83-.92,2.18-.47l1.48,1.9c.37.47,1.77.93,2.39,1.19l-1-3.32ZM166.17,219.2l-5.92-1.36,2.29,2.23c.34.33,1.65.84,2.04.62s.89-.75,1.59-1.48ZM165.68,214.38l4.36,1.96c-2.15-2.75-5.41-3.35-8.77-2.41l3.7,1.62.72-1.17ZM178.68,218.24l-1.62-2.36-2.2-2.61-.28,2.26c-.29,2.38-4.25-5.39-7.57-2.9l5.32,3.13c3.37,1.99-.15-1.18,6.35,2.48ZM176.78,222.66c-1.54-2.85-2.73-3-4.84-3.29l-1.36-1.27c-.29-.27-1.24.2-1.46.4.37.54,1.19,1.21.86,1.35l-1.8.78c.72,3.11,7.49.05,7.76,1.89l.28,1.87,1.76-2.61c.35-.52,1.8-.05,2.78-.15.19-.86-1.44-2.36-2.15-2.45l-1.82,3.47ZM171.55,208.42l.18-1.87-3.56.41c.55,2.94,8.82,3.75,7.76,2.47l-.51-.62-3.87-.38ZM172.23,225.9c-.16-.13-.78-.35-.97-.42s-.57.95-.46,1.13c.6.96,2.65,2.8,4.27,1.67l-2.84-2.37ZM179.2,214.6c-.79-1.58-2.18-2.46-3.6-1.69,1.99,2.06,3.75,3.82,5.58,5.47,1.18-2.6-1.28-2.36-1.99-3.78ZM184.09,206.57c-1.93-1.25-4.68-1.8-6.76-1.39.55,1.56,1.93,1.8,3.46,2.26l2.23.66c.47.14,1.29-.99,1.07-1.53ZM186.48,211.9l-2.28-.45c.92-.38,1.6-.4,1.5-.75-.07-.26-.4-1.42-.59-1.61-.95-.91-4.06-.8-5.09.23l2.21,1.6c.38.28-.03,1.22-.16,1.87l4.76,2.55-.35-3.46ZM181.93,245.94c-.53,4.89.59,9.23,2.25,13.22l-2.25-13.22ZM190.22,206.14l-3.33-3.84.61,6.46c.03.31,1.42,1.19,1.6.94s.62-.9.54-1.2l-.25-.95c.57-.41,1.11-1.09.83-1.41ZM192.05,249.1c-.72-2.1-1.97-3.7-3.78-4.9.66,1.97.81,4.75,3.78,4.9ZM224.07,200.71c-5.19-1.56-7.67,4.14-13.98,5.95-1.94.56-2.75.88-4.1,2.18l-2.96,2.83c4.16-1.08,8.01-1.47,11.27-3.95l5.61-4.25c-1.46,2.17-3.79,3.37-4.8,5.81,3.51-2.96,6.26-5.67,8.96-8.58ZM225.55,202.03c-1.7,1.98-3.27,4.01-4.61,6.53,2.06-1.7,4.48-3.26,4.61-6.53ZM224.52,186.47c-.26,1.05-.38,2.64-.16,3.72.18.88,1.55,1.65,2.88,2.14,1.46-2.7-.6-4.44-2.72-5.86ZM238.58,186.97l2.03-1.43-1.24-.34c-.21-.06-.71-.44-.78-.49l-1.78,4.16,3.04,2.3.43-1.69c.18-.71.18-.9-.52.07l-1.18-2.58ZM250.76,166.04l-1.74,5.58c-1.43,2.17-2.53,4.26-2.36,6.98l1.72-3.89c1.74-2.44,4.03-5.45,2.38-8.66ZM255.89,220.89l-.21,6.78c0,.17.91,1,.92.82l.07-1.02c.17-2.47.32-4.75-.78-6.59ZM271.34,209.24l-8.11-3.26c-.49-.2-1.78.53-2.17,1.06,2.72,2.04,5.34,3.65,8.21,5.28l2.07-3.08ZM272.46,203.74c-5.22.75-6.55-1.21-9.67-.58-.22.04.03.97.25,1.03l.89.25,7.13,1.08c.57.09,1.74.09,1.98-.31s-.04-1.55-.57-1.47Z"/>
    <path d="M227.77,181.84c.28.55.04,2-.2,2.17-2.39-6.39-5.15-9.97-7.91-16.09-.1-.22.44-1.27.38-1.51s.54.19.77.33c.2.13-.17.84-.25,1.15l7.2,13.95Z"/>
    <path d="M226.95,171.52c1.49,2.92,3.15,5.73,3.19,9.11l-5.25-12.05c-.84-1.92-2.11-3.91-1.52-6.08.96,3.08,2.04,6.02,3.58,9.03Z"/>
  </g>
  <g>
    <path d="M288.16-.54v6.63c-1.52,2.4-1.72,5.13-1.18,8.2-.42-.3-1.18-1.42-1.2-2l-.23-5.3c-14.37,9.51-25.36,15.5-41.03,22.32l-24.82,10.81c3.23,1.1,5.79,1.53,9.11,2.27l-4.98.16-6.01.02-5.12-.04c1.72,1.59,2.73,2.54,4.01,3.26l8.18,4.63-4.64-.96,3.67,2.09-9.21-2.66c.61.94,1.7,2.24,2.56,3.13l4.06,4.2-5-2.51c-.02-.23-.21.88.01,1.06l1.39,1.19c-.18.1-1.49.25-2.02-.06l-6.71-3.93c1.29,3.09,5.37,4.8,7.72,5.96.53.26.73,2.01.41,2.41-.38.47-1.6.18-2.18-.16l-.99-.59c-.16-.1-.27.6-.1.68l.8.38c1.1.53,2.17,1.53,1.96,2.59-.26,1.31-1.22,1.9-2.53,2.57l1.03,1.06c.2.21.13.3-.78.75.32,2.58.59,5.38,2.21,7.95l-.34-8.66-.76-.71c-.15-.14-.23-.57-.02-.54.27.05,1.18.3,1.22.49l1.16,5.89.06-2.01c0-.3.74.02,1.16.08l1.53-5.18-.08,6.62,1.22-.02c.21,0-.44,1.13-.39,1.33l1.3,4.95c-.28-5.18,2.11-6.99,1.47-8.77-.1-.26,1.24.2,1.28.42l-.84,3.3,1.85,2.64.69-3.24c.03-.16.88-.22.93-.06.08.24.15.73.08,1.04l-1.18,4.95c1.52-.81,1.96-1.89,2.21-3.3l.19,4.45,2.72-5.4-.72,5.43,1.99-3.08c1.68.13,3.39-1.13,3.77-2.87s1.81-1.88,2.74-2.89l18.41-19.92c9.48-10.26,18.55-20.42,27.27-31.31.95-1.19,1.71-2.17,2.7-2.93v7.65l-28.36,32.88-8,9.98c-1.47,1.84-3.41,3.79-5.05,5.41l-3.99,3.94c-1.96,1.94-4.37,3.55-5.08,6.71l4.02-2.94-2.88,3.9c2.54-.97,3.22-2.75,5.31-2.22l-1.45,2.12,6.32-1.36-1.71,1.35,4.02-.36-6.98,5.61,1.5.47-2.72,1.85c1.62,1.1,3.11-.91,3.45-1.88.12-.35,1.05-.79,1.39-1.15l4.18-4.31c.33-.34,2.1.12,2.29.31-1.66.62-2.75,1.63-4.31,3.74l5.12-2.14c.23-.1,1.08-.07,1.27.06s.33.58.12.68l-.85.44c-1.16.6-2.28,1.86-2.82,3.02,1.49-1.13,7.44-1.94,6.68,0-5.33,2.87-3.4,3.37-6.89,4.72-1.67.64-3.3,1.61-4.68,2.35,7.95,2.22,8.8-1.65,14.65-1.71l-3.94,1.65c2.37-.05,4.03.35,5.62,1.05l-7.65,1.6c-3.01.63-5.66.88-8.55,2.19,4.67.73,8.37,1.03,12.5,1.43l-5.04.29-.06,1.37c-1.59-2.11-4.49-.88-6.9-1.38l-4.17-.87,1.68,2.97.77,1.06c2.16,2.97-.84-1.43.61-1.1,2.87.66,8,1.78,10.99,2.82-3.85-.45-7.65-1.22-11.27-1.87,5.57,4.85.49.03,5.67,3.84,1.91,1.4,4.2,1.83,5.69,3.83-3.4-1.31-8.06-4-11.06-5.93-1.61-1.04-2.84-1.85-4.88-2.21l2.96,2.76-1.78.33c-.33.06-.91-.57-1.48-1.06-.52.97-1.23,3.65-.31,4.6,1.44,1.47,5.78,7.97,5.68,10.44l-5.15-6.21c-1.48-1.78-2.72-3.69-4.28-5.8-6.41,2.49-1.46,12.1-4.16,14.87l-1.02-11.79-1.81,1.08.09,7.6-1.4-6.15c-2.33,1.63-.88,10.42-2.43,12.34l.2-8.4-2,7.35-.87-1.69c-.3.16-1.03.7-1.29.43l-1.31-1.36c-.51-.53-1.21-1.56-1.76-1.49-1.45.18-1.99,3.1-2.46,2.84l-1.23-.68-3.16,4.56c-.53.77-3.12.08-3.93-.07-1.65,2.15-3.69,2.3-6.05,1.18-4-1.89.15-.92-5.23-6.62l-.97.64c-.19.12-.69-.58-.63-.8l1.06-3.69c2.55-.26,6.22-5.42,4.64-7.99l-4.09,3.22c-.65.51-1.1,2.13-1.08,2.84-.13-.04-.96-.82-1.11-.56l-.87,1.52c-2.08-2.59,3.57-3.93,6.36-7.75-.11-.51-1.12-1.65-1.56-1.39l-2.29,1.39,2.41-2.94c-1.13.36-2.62,1.34-3.65,2.05-2.99.15-.84,2.05-4.61,2.22l7.66-5.56c1.03-.75,1.21-3.19,1.01-5.01-4.02,1.59-7.72,3.33-11.5,5.2-.29.75-.38,1.07-.54.9-.12-.12-.61-.62-.61-.6,0,.01.65-.87.81-.95l10.36-4.8c.29-.33.53-1.73.52-2.15l-5.96,2.74c-1.74.8-2.73,3.46-5.28,3.2,5.17-4.77,6.16-3.98,11.95-7.26-2.69-2.11-4.73.99-7.31.22l5.91-2.41,1.62-.62c.42-.16.06-2.3-.46-2.22l-13.73,2.13c2.27-1.95,16.32-2.17,15.93-4.2-4.29.11-7.46.42-10.82-.03l7.05-.33c.49-.02,1.54-.54,2.18-.88h-11.51c.85-1.84,11.19.46,13.26-.97l-7.97-1.47c1.47-.73,6.76,1.01,6.95-.14l.22-1.33c-1.71-.28-3.19-.63-4.43-1.34.97-1,2.14-1.37,3.09-1.3l.86-1.5c.55-.95,3.61,1.11,5.69-.27-1.95-1.5-3.46-2.19-3.68-4.75l2.99,2.01-.87-2.35,3.41,3.07c-.43-1.47-.55-2.87-.54-3.84-2.14-1.55-5.95-7.01-6.38-9.48l-1.19-.17c-.3-.04-.01-1.21-.02-1.57l-.05-4.1c-.68,1.31-.89,1.66-.72.77-.76-1.3-1.35-2.38-.97-2.96.4-.62.97-1.26.65-1.4l-1.15-.52c-.93-.42.4,5.84-.31,7.13l-.65-2.72c-1.28,1.83-.63,4-.33,5.88.19,1.14-1.3,3.06,1.35,4.5l-1.51.47c-1,.31.9.5.3,2.32-.51,1.56-.22-1.46-1.62-1.36.46-.49.89-.89,1.06-1.25s-.47-1.25-.7-1.58l-.64-.91c-.13-.18.64-.9.61-1.15-.25-2.09-.34-5.76-.09-8.35-1.67.83-3.53,8.36-.74,8.93-1.21.5-1.79,1.16-1.92,2.18l-.85,6.53-1.53-.42c1.43-2.97,1.06-6.14,1.35-9.08l.51-5.13-1.2,1.12.72-3.48c-4.18.57-8.38,19.44-11.19,17.15,1.67-.63,5.8-10.17,6.46-12.88-2.02,2.81-3.52,5.31-5.2,8.01l-1.22-1.31c-.14-.16,1.08-.53,1.23-.78l7.24-12.19c-2.82-3.52-15.62,16.43-15.66,11.49,0-.18-.03-.28.13-.37.14-.07,1.14-.37,1.27-.5l6.91-7.29-.64-1.09c1.93-1.86,3.67-3.52,4.94-5.58l-12.57,8.02.9-2.27,9.4-5.94c.36-.23,1.11-.88.95-1.21l-.57-1.25c.92.52,2.24,1.08,3.12.73.73-.3,1.89-1.79,1.99-2.31-1.36-.93-2.2-1.47-3.12-2.37-.86-.84-3.2.34-4.22,1.34l-1.75-.58c-1.96.78-3.77,1.16-5.82,1.41-3.17.39-5.95,1.89-9.3,1.86l5.71-1.87,7.66-2.51c-5.38-.39-13.92,3.37-17.54,2l10.78-1.71c.19-.03.79-1.44.88-1.26.86,1.61,1.36-.75,5.35-.68,2.45-1.04,1.27,2.15,5.38-.59-1.05-1.02-2.46-2.31-3.32-3.02-.29-.24-1.74.32-1.81.69l-.28,1.59-.94-2.55c-.15-.41-1.49-.14-2.46-.12l.79,1.76c-1.14-.37-2.44-.72-3.37-.72h-10.4c-.66,0-1.46-.43-2.02-1.05l5.66.23,6.98-.11c-1.07-.95-2.42-.63-3.91-.54-.81-.14-2.16-1.23-2.83-1.86l-8-1.22,4.02-2.31.23,1.92c1.99.42,4.44.62,6.69.58l1.8-.03c.25,0,.11-.71.12-1.07l.9-.25c.23-.06-.72-1.23-.91-1.11l-2.02,1.31c-1.71-.64-3.57-1.07-5.43-1.35.71-.87,1.54-2.32,1.94-3.46l-3.47.03c.13.94.35,1.51.06,1.5s-.87.09-.95-.08l-.41-.88c-.16-.34-.23-1.35.01-1.63l1.63-1.85,3.45.67-.93-1.29c-.16-.22,0-.67.05-1.03l-.76-3.01c-.44.45-.57.57-.7.75s-1.2-.42-1.01-.53.73-.65.68-.87l-.6-2.52,4.92,2.21c-1.48-2.01-2.56-3.44-1.84-5.67,1.21,3.06,5.36,4.64,4.97,3.17-.08-.31-.33-1.26-.29-1.12-1.17,1.86-2.07.1-2.52-.81-.3-.62.71-1.56,1.4-2.05-.19-1.56.3-3.4,1.5-4.82,2.08,1.93,3.61,3.17,6.68,4.91l-.53-1.99,3.69,2.32-1.32-2.73,3.69,2.08-6.81-8.02c3.5.99,7.35,8.96,11.24,8.75-.92-1.1-1.62-1.92-2.3-2.94l-6.01-8.98c2.75.85,4,2.8,5.22,5.26l.9-1.33c1.02,1.94,1.88,3.8,3.88,2.81l-5.33-11.89c.94.58,2.15,1.39,2.69,1.93l2.95,5.87c1.31-2.47-.79-3.69-1.31-5.88,2.58.66.71,3.61,3.74,4.46-.92,1.48-.07,3.35,1.3,4.03.21,1.03.57,2.37,1.73,3l-2.5-10.71c-.35-1.51-1.01-2.94-1.64-4.4,1.9.82,1.75,2.96,2.47,4.51l1.75,3.8-.05-2.24c-.05-2.51-.5-4.76-1.68-7.03,1.33.17,1.78,1.56,2,2.96l1.19,7.43c.44,2.76.55,5.4,2.05,7.73l.22-7.73c-.17-.26-.79-.81-.68-1.04l.52-1.11c-.42-1.19-.98-2.03-.45-3.28,2.97,2.79-.14,13.6,2,14.38l.37-15.7c.01-.47-.35-1.55-.42-1.77.3-.39,1-1.16.72-1.4l-.96-.82c3.6-.86.19,7.07,3.64,8.82l1.06-7.21.56,7.07c.05.62,2.14-.05,2.13-.73s-.28-1.58-.55-2.42c1.1.35,1.12,1.72,1.55,3.74l2.23-6.51c-1.46-.64-.98-.75.43-.79.57,2.73-1.72,5.15-1.66,8.29,1.36-2.41,2.29-4.65,3.31-7.02-.8-1.11-.91-1.57.72-.59-.28,3.47-4.03,7.15-1.9,8.9.8.66,2.1.85,2.8.3.39-.31.82-1.05.61-1.29l-.69-.8c2.1-.14,2.85-1.53,3.55-3.15l.99-2.29c2.68.68-4.95,8.25-4.21,11.46l1.82-2.49c-.08,1.27-.31,2.22-.68,3.71l4.97-4.51c.72-.66,1.12-1.65,1.52-2.85.07.08.49.86.52,1.21s-.47,1.11-.79,1.43l-5.85,5.91c2.26.34,3.11-1.47,4.53-2.75l1.15-1.04c.16-.14.33.12,1.06.75l3.3-3.52c.43.19,1.48,3.22.62,3.82-1.23.86-3.43,2.03-4.81,2.79.02,2.23-1.56,3.01-3.25,4.09-1.94,1.24-3.73,2.63-5.57,4.01,1.88.44,3.26-1.37,4.75-1.62l6.23-1.05c1.46-.25,3.22-1.24,4.15-1.89l2.12.61c-1.67.88-3.25,1.46-5.56,2.37,2.11.56,4.37.55,6.32-.49-.59,1.21-1.32,2.51-1.91,3.42-4.65.05-8.52.1-12.92,1.69,1.41.78,2.61.24,3.96.33,3.62.25,7.18.32,10.61-.2l-1.79,2.34c12.4-4.84,23.97-9.94,35.45-16.21,6.18-3.37,11.7-7.23,17.45-11.15l6.72-4.58ZM225.72,112.27c-2.08.63-2.39,3.89-1.71,5.29l-2.17,3.23c.02.18.76.33.88.17l.45-.59c.4,2.14.81,3.64,2.1,5.22.65-3.01,1.1-5.41,1.16-8.26,0-.61-.92-1.83-.47-2.18l1.9-1.48c.47-.37.93-1.77,1.19-2.39l-3.32,1ZM219.71,116.04l-1.36,5.92,2.23-2.29c.33-.34.84-1.65.62-2.04s-.75-.89-1.48-1.59ZM214.88,116.53l1.96-4.36c-2.75,2.15-3.35,5.41-2.41,8.77l1.62-3.7-1.17-.72ZM218.74,103.53l-2.36,1.62-2.61,2.2,2.26.28c2.38.29-5.39,4.25-2.9,7.57l3.13-5.32c1.99-3.37-1.18.15,2.48-6.35ZM223.17,105.43c-2.85,1.54-3,2.73-3.29,4.84l-1.27,1.36c-.27.29.2,1.24.4,1.46.54-.37,1.21-1.19,1.35-.86l.78,1.8c3.11-.72.05-7.49,1.89-7.76l1.87-.28-2.61-1.76c-.52-.35-.05-1.8-.15-2.78-.86-.19-2.36,1.44-2.45,2.15l3.47,1.82ZM208.93,110.66l-1.87-.18.41,3.56c2.94-.55,3.75-8.82,2.47-7.76l-.62.51-.38,3.87ZM226.4,109.98c-.13.16-.35.78-.42.97s.95.57,1.13.46c.96-.6,2.8-2.65,1.67-4.27l-2.37,2.84ZM215.1,103.01c-1.58.79-2.46,2.18-1.69,3.6,2.06-1.99,3.82-3.75,5.47-5.58-2.6-1.18-2.36,1.28-3.78,1.99ZM207.07,98.12c-1.25,1.93-1.8,4.68-1.39,6.76,1.56-.55,1.8-1.93,2.26-3.46l.66-2.23c.14-.47-.99-1.29-1.53-1.07ZM212.4,95.73l-.45,2.28c-.38-.92-.4-1.6-.75-1.5-.26.07-1.42.4-1.61.59-.91.95-.8,4.06.23,5.09l1.6-2.21c.28-.38,1.22.03,1.87.16l2.55-4.76-3.46.35ZM246.45,100.28c4.89.53,9.23-.59,13.22-2.25l-13.22,2.25ZM206.65,91.99l-3.84,3.33,6.46-.61c.31-.03,1.19-1.42.94-1.6s-.9-.62-1.2-.54l-.95.25c-.41-.57-1.09-1.11-1.41-.83ZM249.61,90.16c-2.1.72-3.7,1.97-4.9,3.78,1.97-.66,4.75-.81,4.9-3.78ZM201.22,58.13c-1.56,5.19,4.14,7.67,5.95,13.98.56,1.94.88,2.75,2.18,4.1l2.83,2.96c-1.08-4.16-1.47-8.01-3.95-11.27l-4.25-5.61c2.17,1.46,3.37,3.79,5.81,4.8-2.96-3.51-5.67-6.26-8.58-8.96ZM202.54,56.66c1.98,1.7,4.01,3.27,6.53,4.61-1.7-2.06-3.26-4.48-6.53-4.61ZM186.97,57.69c1.05.26,2.64.38,3.72.16.88-.18,1.65-1.55,2.14-2.88-2.7-1.46-4.44.6-5.86,2.72ZM187.47,43.62l-1.43-2.03-.34,1.24c-.06.21-.44.71-.49.78l4.16,1.78,2.3-3.04-1.69-.43c-.71-.18-.9-.18.07.52l-2.58,1.18ZM166.54,31.45l5.58,1.74c2.17,1.43,4.26,2.53,6.98,2.36l-3.89-1.72c-2.44-1.74-5.45-4.03-8.66-2.38ZM221.39,26.32l6.78.21c.17,0,1-.91.82-.92l-1.02-.07c-2.47-.17-4.75-.32-6.59.78ZM209.74,10.87l-3.26,8.11c-.2.49.53,1.78,1.06,2.17,2.04-2.72,3.65-5.34,5.28-8.21l-3.08-2.07ZM204.24,9.75c.75,5.22-1.21,6.55-.58,9.67.04.22.97-.03,1.03-.25l.25-.89,1.08-7.13c.09-.57.09-1.74-.31-1.98s-1.55.04-1.47.57Z"/>
    <path d="M182.34,54.44c.55-.28,2-.04,2.17.2-6.39,2.39-9.97,5.15-16.09,7.91-.22.1-1.27-.44-1.51-.38s.19-.54.33-.77c.13-.2.84.17,1.15.25l13.95-7.2Z"/>
    <path d="M172.02,55.26c2.92-1.49,5.73-3.15,9.11-3.19l-12.05,5.25c-1.92.84-3.91,2.11-6.08,1.52,3.08-.96,6.02-2.04,9.03-3.58Z"/>
  </g>
  <g>
    <path d="M5.32.14h6.63c2.4,1.52,5.13,1.72,8.2,1.18-.3.42-1.42,1.18-2,1.2l-5.3.23c9.51,14.37,15.5,25.36,22.32,41.03l10.81,24.82c1.1-3.23,1.53-5.79,2.27-9.11l.16,4.98.02,6.01-.04,5.12c1.59-1.72,2.54-2.73,3.26-4.01l4.63-8.18-.96,4.64,2.09-3.67-2.66,9.21c.94-.61,2.24-1.7,3.13-2.56l4.2-4.06-2.51,5c-.23.02.88.21,1.06-.01l1.19-1.39c.1.18.25,1.49-.06,2.02l-3.93,6.71c3.09-1.29,4.8-5.37,5.96-7.72.26-.53,2.01-.73,2.41-.41.47.38.18,1.6-.16,2.18l-.59.99c-.1.16.6.27.68.1l.38-.8c.53-1.1,1.53-2.17,2.59-1.96,1.31.26,1.9,1.22,2.57,2.53l1.06-1.03c.21-.2.3-.13.75.78,2.58-.32,5.38-.59,7.95-2.21l-8.66.34-.71.76c-.14.15-.57.23-.54.02.05-.27.3-1.18.49-1.22l5.89-1.16-2.01-.06c-.3,0,.02-.74.08-1.16l-5.18-1.53,6.62.08-.02-1.22c0-.21,1.13.44,1.33.39l4.95-1.3c-5.18.28-6.99-2.11-8.77-1.47-.26.1.2-1.24.42-1.28l3.3.84,2.64-1.85-3.24-.69c-.16-.03-.22-.88-.06-.93.24-.08.73-.15,1.04-.08l4.95,1.18c-.81-1.52-1.89-1.96-3.3-2.21l4.45-.19-5.4-2.72,5.43.72-3.08-1.99c.13-1.68-1.13-3.39-2.87-3.77s-1.88-1.81-2.89-2.74l-19.92-18.41c-10.26-9.48-20.42-18.55-31.31-27.27-1.19-.95-2.17-1.71-2.93-2.7h7.65l32.88,28.36,9.98,8c1.84,1.47,3.79,3.41,5.41,5.05l3.94,3.99c1.94,1.96,3.55,4.37,6.71,5.08l-2.94-4.02,3.9,2.88c-.97-2.54-2.75-3.22-2.22-5.31l2.12,1.45-1.36-6.32,1.35,1.71-.36-4.02,5.61,6.98.47-1.5,1.85,2.72c1.1-1.62-.91-3.11-1.88-3.45-.35-.12-.79-1.05-1.15-1.39l-4.31-4.18c-.34-.33.12-2.1.31-2.29.62,1.66,1.63,2.75,3.74,4.31l-2.14-5.12c-.1-.23-.07-1.08.06-1.27s.58-.33.68-.12l.44.85c.6,1.16,1.86,2.28,3.02,2.82-1.13-1.49-1.94-7.44,0-6.68,2.87,5.33,3.37,3.4,4.72,6.89.64,1.67,1.61,3.3,2.35,4.68,2.22-7.95-1.65-8.8-1.71-14.65l1.65,3.94c-.05-2.37.35-4.03,1.05-5.62l1.6,7.65c.63,3.01.88,5.66,2.19,8.55.73-4.67,1.03-8.37,1.43-12.5l.29,5.04,1.37.06c-2.11,1.59-.88,4.49-1.38,6.9l-.87,4.17,2.97-1.68,1.06-.77c2.97-2.16-1.43.84-1.1-.61.66-2.87,1.78-8,2.82-10.99-.45,3.85-1.22,7.65-1.87,11.27,4.85-5.57.03-.49,3.84-5.67,1.4-1.91,1.83-4.2,3.83-5.69-1.31,3.4-4,8.06-5.93,11.06-1.04,1.61-1.85,2.84-2.21,4.88l2.76-2.96.33,1.78c.06.33-.57.91-1.06,1.48.97.52,3.65,1.23,4.6.31,1.47-1.44,7.97-5.78,10.44-5.68l-6.21,5.15c-1.78,1.48-3.69,2.72-5.8,4.28,2.49,6.41,12.1,1.46,14.87,4.16l-11.79,1.02,1.08,1.81,7.6-.09-6.15,1.4c1.63,2.33,10.42.88,12.34,2.43l-8.4-.2,7.35,2-1.69.87c.16.3.7,1.03.43,1.29l-1.36,1.31c-.53.51-1.56,1.21-1.49,1.76.18,1.45,3.1,1.99,2.84,2.46l-.68,1.23,4.56,3.16c.77.53.08,3.12-.07,3.93,2.15,1.65,2.3,3.69,1.18,6.05-1.89,4-.92-.15-6.62,5.23l.64.97c.12.19-.58.69-.8.63l-3.69-1.06c-.26-2.55-5.42-6.22-7.99-4.64l3.22,4.09c.51.65,2.13,1.1,2.84,1.08-.04.13-.82.96-.56,1.11l1.52.87c-2.59,2.08-3.93-3.57-7.75-6.36-.51.11-1.65,1.12-1.39,1.56l1.39,2.29-2.94-2.41c.36,1.13,1.34,2.62,2.05,3.65.15,2.99,2.05.84,2.22,4.61l-5.56-7.66c-.75-1.03-3.19-1.21-5.01-1.01,1.59,4.02,3.33,7.72,5.2,11.5.75.29,1.07.38.9.54-.12.12-.62.61-.6.61.01,0-.87-.65-.95-.81l-4.8-10.36c-.33-.29-1.73-.53-2.15-.52l2.74,5.96c.8,1.74,3.46,2.73,3.2,5.28-4.77-5.17-3.98-6.16-7.26-11.95-2.11,2.69.99,4.73.22,7.31l-2.41-5.91-.62-1.62c-.16-.42-2.3-.06-2.22.46l2.13,13.73c-1.95-2.27-2.17-16.32-4.2-15.93.11,4.29.42,7.46-.03,10.82l-.33-7.05c-.02-.49-.54-1.54-.88-2.18v11.51c-1.84-.85.46-11.19-.97-13.26l-1.47,7.97c-.73-1.47,1.01-6.76-.14-6.95l-1.33-.22c-.28,1.71-.63,3.19-1.34,4.43-1-.97-1.37-2.14-1.3-3.09l-1.5-.86c-.95-.55,1.11-3.61-.27-5.69-1.5,1.95-2.19,3.46-4.75,3.68l2.01-2.99-2.35.87,3.07-3.41c-1.47.43-2.87.55-3.84.54-1.55,2.14-7.01,5.95-9.48,6.38l-.17,1.19c-.04.3-1.21.01-1.57.02l-4.1.05c1.31.68,1.66.89.77.72-1.3.76-2.38,1.35-2.96.97-.62-.4-1.26-.97-1.4-.65l-.52,1.15c-.42.93,5.84-.4,7.13.31l-2.72.65c1.83,1.28,4,.63,5.88.33,1.14-.19,3.06,1.3,4.5-1.35l.47,1.51c.31,1,.5-.9,2.32-.3,1.56.51-1.46.22-1.36,1.62-.49-.46-.89-.89-1.25-1.06s-1.25.47-1.58.7l-.91.64c-.18.13-.9-.64-1.15-.61-2.09.25-5.76.34-8.35.09.83,1.67,8.36,3.53,8.93.74.5,1.21,1.16,1.79,2.18,1.92l6.53.85-.42,1.53c-2.97-1.43-6.14-1.06-9.08-1.35l-5.13-.51,1.12,1.2-3.48-.72c.57,4.18,19.44,8.38,17.15,11.19-.63-1.67-10.17-5.8-12.88-6.46,2.81,2.02,5.31,3.52,8.01,5.2l-1.31,1.22c-.16.14-.53-1.08-.78-1.23l-12.19-7.24c-3.52,2.82,16.43,15.62,11.49,15.66-.18,0-.28.03-.37-.13-.07-.14-.37-1.14-.5-1.27l-7.29-6.91-1.09.64c-1.86-1.93-3.52-3.67-5.58-4.94l8.02,12.57-2.27-.9-5.94-9.4c-.23-.36-.88-1.11-1.21-.95l-1.25.57c.52-.92,1.08-2.24.73-3.12-.3-.73-1.79-1.89-2.31-1.99-.93,1.36-1.47,2.2-2.37,3.12-.84.86.34,3.2,1.34,4.22l-.58,1.75c.78,1.96,1.16,3.77,1.41,5.82.39,3.17,1.89,5.95,1.86,9.3l-1.87-5.71-2.51-7.66c-.39,5.38,3.37,13.92,2,17.54l-1.71-10.78c-.03-.19-1.44-.79-1.26-.88,1.61-.86-.75-1.36-.68-5.35-1.04-2.45,2.15-1.27-.59-5.38-1.02,1.05-2.31,2.46-3.02,3.32-.24.29.32,1.74.69,1.81l1.59.28-2.55.94c-.41.15-.14,1.49-.12,2.46l1.76-.79c-.37,1.14-.72,2.44-.72,3.37v10.4c0,.66-.43,1.46-1.05,2.02l.23-5.66-.11-6.98c-.95,1.07-.63,2.42-.54,3.91-.14.81-1.23,2.16-1.86,2.83l-1.22,8-2.31-4.02,1.92-.23c.42-1.99.62-4.44.58-6.69l-.03-1.8c0-.25-.71-.11-1.07-.12l-.25-.9c-.06-.23-1.23.72-1.11.91l1.31,2.02c-.64,1.71-1.07,3.57-1.35,5.43-.87-.71-2.32-1.54-3.46-1.94l.03,3.47c.94-.13,1.51-.35,1.5-.06s.09.87-.08.95l-.88.41c-.34.16-1.35.23-1.63-.01l-1.85-1.63.67-3.45-1.29.93c-.22.16-.67,0-1.03-.05l-3.01.76c.45.44.57.57.75.7s-.42,1.2-.53,1.01-.65-.73-.87-.68l-2.52.6,2.21-4.92c-2.01,1.48-3.44,2.56-5.67,1.84,3.06-1.21,4.64-5.36,3.17-4.97-.31.08-1.26.33-1.12.29,1.86,1.17.1,2.07-.81,2.52-.62.3-1.56-.71-2.05-1.4-1.56.19-3.4-.3-4.82-1.5,1.93-2.08,3.17-3.61,4.91-6.68l-1.99.53,2.32-3.69-2.73,1.32,2.08-3.69-8.02,6.81c.99-3.5,8.96-7.35,8.75-11.24-1.1.92-1.92,1.62-2.94,2.3l-8.98,6.01c.85-2.75,2.8-4,5.26-5.22l-1.33-.9c1.94-1.02,3.8-1.88,2.81-3.88l-11.89,5.33c.58-.94,1.39-2.15,1.93-2.69l5.87-2.95c-2.47-1.31-3.69.79-5.88,1.31.66-2.58,3.61-.71,4.46-3.74,1.48.92,3.35.07,4.03-1.3,1.03-.21,2.37-.57,3-1.73l-10.71,2.5c-1.51.35-2.94,1.01-4.4,1.64.82-1.9,2.96-1.75,4.51-2.47l3.8-1.75-2.24.05c-2.51.05-4.76.5-7.03,1.68.17-1.33,1.56-1.78,2.96-2l7.43-1.19c2.76-.44,5.4-.55,7.73-2.05l-7.73-.22c-.26.17-.81.79-1.04.68l-1.11-.52c-1.19.42-2.03.98-3.28.45,2.79-2.97,13.6.14,14.38-2l-15.7-.37c-.47-.01-1.55.35-1.77.42-.39-.3-1.16-1-1.4-.72l-.82.96c-.86-3.6,7.07-.19,8.82-3.64l-7.21-1.06,7.07-.56c.62-.05-.05-2.14-.73-2.13s-1.58.28-2.42.55c.35-1.1,1.72-1.12,3.74-1.55l-6.51-2.23c-.64,1.46-.75.98-.79-.43,2.73-.57,5.15,1.72,8.29,1.66-2.41-1.36-4.65-2.29-7.02-3.31-1.11.8-1.57.91-.59-.72,3.47.28,7.15,4.03,8.9,1.9.66-.8.85-2.1.3-2.8-.31-.39-1.05-.82-1.29-.61l-.8.69c-.14-2.1-1.53-2.85-3.15-3.55l-2.29-.99c.68-2.68,8.25,4.95,11.46,4.21l-2.49-1.82c1.27.08,2.22.31,3.71.68l-4.51-4.97c-.66-.72-1.65-1.12-2.85-1.52.08-.07.86-.49,1.21-.52s1.11.47,1.43.79l5.91,5.85c.34-2.26-1.47-3.11-2.75-4.53l-1.04-1.15c-.14-.16.12-.33.75-1.06l-3.52-3.3c.19-.43,3.22-1.48,3.82-.62.86,1.23,2.03,3.43,2.79,4.81,2.23-.02,3.01,1.56,4.09,3.25,1.24,1.94,2.63,3.73,4.01,5.57.44-1.88-1.37-3.26-1.62-4.75l-1.05-6.23c-.25-1.46-1.24-3.22-1.89-4.15l.61-2.12c.88,1.67,1.46,3.25,2.37,5.56.56-2.11.55-4.37-.49-6.32,1.21.59,2.51,1.32,3.42,1.91.05,4.65.1,8.52,1.69,12.92.78-1.41.24-2.61.33-3.96.25-3.62.32-7.18-.2-10.61l2.34,1.79c-4.84-12.4-9.94-23.97-16.21-35.45-3.37-6.18-7.23-11.7-11.15-17.45L5.32.14ZM118.14,62.58c.63,2.08,3.89,2.39,5.29,1.71l3.23,2.17c.18-.02.33-.76.17-.88l-.59-.45c2.14-.4,3.64-.81,5.22-2.1-3.01-.65-5.41-1.1-8.26-1.16-.61,0-1.83.92-2.18.47l-1.48-1.9c-.37-.47-1.77-.93-2.39-1.19l1,3.32ZM121.9,68.6l5.92,1.36-2.29-2.23c-.34-.33-1.65-.84-2.04-.62s-.89.75-1.59,1.48ZM122.39,73.42l-4.36-1.96c2.15,2.75,5.41,3.35,8.77,2.41l-3.7-1.62-.72,1.17ZM109.39,69.56l1.62,2.36,2.2,2.61.28-2.26c.29-2.38,4.25,5.39,7.57,2.9l-5.32-3.13c-3.37-1.99.15,1.18-6.35-2.48ZM111.29,65.14c1.54,2.85,2.73,3,4.84,3.29l1.36,1.27c.29.27,1.24-.2,1.46-.4-.37-.54-1.19-1.21-.86-1.35l1.8-.78c-.72-3.11-7.49-.05-7.76-1.89l-.28-1.87-1.76,2.61c-.35.52-1.8.05-2.78.15-.19.86,1.44,2.36,2.15,2.45l1.82-3.47ZM116.52,79.38l-.18,1.87,3.56-.41c-.55-2.94-8.82-3.75-7.76-2.47l.51.62,3.87.38ZM115.84,61.9c.16.13.78.35.97.42s.57-.95.46-1.13c-.6-.96-2.65-2.8-4.27-1.67l2.84,2.37ZM108.87,73.2c.79,1.58,2.18,2.46,3.6,1.69-1.99-2.06-3.75-3.82-5.58-5.47-1.18,2.6,1.28,2.36,1.99,3.78ZM103.98,81.23c1.93,1.25,4.68,1.8,6.76,1.39-.55-1.56-1.93-1.8-3.46-2.26l-2.23-.66c-.47-.14-1.29.99-1.07,1.53ZM101.59,75.91l2.28.45c-.92.38-1.6.4-1.5.75.07.26.4,1.42.59,1.61.95.91,4.06.8,5.09-.23l-2.21-1.6c-.38-.28.03-1.22.16-1.87l-4.76-2.55.35,3.46ZM106.14,41.86c.53-4.89-.59-9.23-2.25-13.22l2.25,13.22ZM97.85,81.66l3.33,3.84-.61-6.46c-.03-.31-1.42-1.19-1.6-.94s-.62.9-.54,1.2l.25.95c-.57.41-1.11,1.09-.83,1.41ZM96.02,38.7c.72,2.1,1.97,3.7,3.78,4.9-.66-1.97-.81-4.75-3.78-4.9ZM64,87.09c5.19,1.56,7.67-4.14,13.98-5.95,1.94-.56,2.75-.88,4.1-2.18l2.96-2.83c-4.16,1.08-8.01,1.47-11.27,3.95l-5.61,4.25c1.46-2.17,3.79-3.37,4.8-5.81-3.51,2.96-6.26,5.67-8.96,8.58ZM62.52,85.77c1.7-1.98,3.27-4.01,4.61-6.53-2.06,1.7-4.48,3.26-4.61,6.53ZM63.55,101.33c.26-1.05.38-2.64.16-3.72-.18-.88-1.55-1.65-2.88-2.14-1.46,2.7.6,4.44,2.72,5.86ZM49.48,100.84l-2.03,1.43,1.24.34c.21.06.71.44.78.49l1.78-4.16-3.04-2.3-.43,1.69c-.18.71-.18.9.52-.07l1.18,2.58ZM37.31,121.76l1.74-5.58c1.43-2.17,2.53-4.26,2.36-6.98l-1.72,3.89c-1.74,2.44-4.03,5.45-2.38,8.66ZM32.18,66.92l.21-6.78c0-.17-.91-1-.92-.82l-.07,1.02c-.17,2.47-.32,4.75.78,6.59ZM16.73,78.56l8.11,3.26c.49.2,1.78-.53,2.17-1.06-2.72-2.04-5.34-3.65-8.21-5.28l-2.07,3.08ZM15.61,84.06c5.22-.75,6.55,1.21,9.67.58.22-.04-.03-.97-.25-1.03l-.89-.25-7.13-1.08c-.57-.09-1.74-.09-1.98.31s.04,1.55.57,1.47Z"/>
    <path d="M60.3,105.96c-.28-.55-.04-2,.2-2.17,2.39,6.39,5.15,9.97,7.91,16.09.1.22-.44,1.27-.38,1.51s-.54-.19-.77-.33c-.2-.13.17-.84.25-1.15l-7.2-13.95Z"/>
    <path d="M61.12,116.28c-1.49-2.92-3.15-5.73-3.19-9.11l5.25,12.05c.84,1.92,2.11,3.91,1.52,6.08-.96-3.08-2.04-6.02-3.58-9.03Z"/>
  </g>
</svg>