<?xml version="1.0" encoding="UTF-8"?>
<svg xmlns="http://www.w3.org/2000/svg" viewBox="0 0 288 288">
  <defs>
    <style>
      .cls-1 {
        stroke: #fff200;
        stroke-width: .72px;
      }

      .cls-1, .cls-2 {
        fill: none;
        stroke-miterlimit: 10;
      }

      .cls-2 {
        stroke: #000;
        stroke-width: .28px;
      }
    </style>
  </defs>
  <g id="Layer_1" data-name="Layer 1">
    <g>
      <rect class="cls-1" x="109.65" y="112.13" width="79.2" height="79.2"/>
      <g>
        <path d="M119.13,205.44c-.25.02-.56-.05-.94-.2-.33-.14-.63-.34-.91-.61-.16-.18-.28-.35-.35-.52-.03-.08-.02-.14.01-.18.05-.05.16-.03.35.08.17.08.32.14.44.18.04-.76.09-1.39.15-1.91.27-2.11.84-4.32,1.71-6.62.1-.29.23-.59.4-.9.05-.06.11-.08.19-.04.3.14.57.37.82.7.06.06.12.15.16.25.05.1.06.19.04.25-.08.26-.23.7-.44,1.3-.21.6-.36,1.06-.46,1.39.29-.25.58-.42.87-.53.21-.07.41-.1.61-.07.34.05.66.22.97.52.35.31.58.62.71.93.15.32.2.72.16,1.2-.04.53-.17,1.09-.4,1.68-.2.54-.55,1.07-1.05,1.61-.46.54-1.07.94-1.82,1.2-.56.19-.96.29-1.23.3ZM120.43,200.94c-.48.75-.9,1.76-1.26,3.03.51-.17.92-.38,1.23-.63.44-.32.84-.76,1.2-1.31.28-.42.5-.91.64-1.47.15-.5.2-.94.18-1.32-.26.05-.57.22-.91.49-.36.31-.72.71-1.08,1.21Z"/>
        <path d="M129.42,205.38c.07.12.05.19-.07.2-.08,0-.16-.01-.23-.04-.27-.08-.53-.22-.76-.42-.23-.2-.41-.42-.54-.68-.41.54-.8.87-1.16,1.01-.16.05-.29.09-.38.1-.42,0-.86-.11-1.31-.35-.36-.19-.65-.41-.86-.66-.22-.25-.33-.54-.33-.89,0-.3.07-.78.25-1.43.06-.23.16-.54.28-.93.12-.4.23-.76.33-1.09.1-.33.18-.65.25-.95.14-.5.2-.91.18-1.21,0-.08.05-.11.16-.1.13,0,.28.06.46.15.11.05.23.14.38.25.14.11.23.2.25.27.04.1.05.3.05.6s0,.53-.03.68c-.03.27-.08.57-.14.89-.07.32-.13.58-.18.78-.05.2-.14.5-.26.91-.12.41-.2.68-.23.81-.14.52-.2.89-.18,1.12.25-.11.48-.25.7-.44.2-.19.43-.46.68-.82.04-.05.09-.12.16-.22.07-.1.12-.18.14-.23.21-.33.41-.7.61-1.13.2-.42.35-.79.47-1.1.12-.31.27-.72.46-1.24.19-.52.33-.9.42-1.15.02-.04.05-.05.1-.05.15,0,.35.05.59.19.24.14.41.27.51.41.04.07.05.11.04.12,0,0-.01.05-.04.12-.03.07-.05.12-.05.14-.26.76-.47,1.44-.63,2.03-.05.21-.12.67-.23,1.38-.12.91-.17,1.56-.15,1.95.02.34.06.6.14.79.03.05.08.13.15.22Z"/>
        <path d="M131.48,205.55c-.03.06-.09.08-.19.04-.14-.05-.3-.16-.49-.31-.26-.26-.43-.49-.51-.68-.02-.04-.03-.1-.03-.19s0-.2,0-.32c0-.12,0-.19,0-.2.05-.79.18-1.69.4-2.69.15-.72.31-1.39.5-2.01.18-.56.35-.98.49-1.26.04-.05.11-.06.22-.01.29.13.55.35.79.67.18.24.25.4.2.5,0,.03-.06.18-.14.46-.09.28-.13.44-.14.48.45-.67.88-1.21,1.27-1.62.34-.34.6-.47.78-.4.16.05.34.17.52.34.38.36.62.71.72,1.02.06.16.09.4.07.7-.02.23-.08.55-.2.96s-.18.7-.21.87c-.02.26-.01.44.01.53.07.14.1.23.08.27-.04.11-.16.1-.37-.04-.3-.2-.54-.45-.72-.74-.15-.25-.22-.5-.22-.76,0-.23.05-.56.16-1-.46.57-.89,1.21-1.31,1.9-.43.69-.78,1.31-1.05,1.84-.27.54-.49,1.08-.66,1.64Z"/>
        <path d="M137.39,205.55c-.03.06-.09.08-.19.04-.14-.05-.3-.16-.49-.31-.26-.26-.43-.49-.5-.68-.02-.04-.03-.1-.03-.19s0-.2,0-.32c0-.12,0-.19,0-.2.05-.79.18-1.69.4-2.69.15-.72.31-1.39.5-2.01.18-.56.35-.98.49-1.26.04-.05.11-.06.22-.01.29.13.55.35.79.67.18.24.25.4.2.5,0,.03-.06.18-.14.46-.09.28-.13.44-.14.48.45-.67.88-1.21,1.27-1.62.34-.34.6-.47.78-.4.16.05.34.17.52.34.38.36.62.71.72,1.02.06.16.09.4.07.7-.02.23-.08.55-.2.96-.11.41-.18.7-.21.87-.02.26-.01.44.01.53.07.14.1.23.08.27-.04.11-.16.1-.37-.04-.3-.2-.54-.45-.72-.74-.15-.25-.22-.5-.22-.76,0-.23.05-.56.16-1-.45.57-.89,1.21-1.31,1.9-.43.69-.78,1.31-1.05,1.84-.27.54-.49,1.08-.66,1.64Z"/>
        <g>
          <path d="M148.07,205.77c-.25.02-.56-.05-.94-.2-.33-.14-.63-.34-.91-.61-.16-.18-.28-.35-.35-.52-.03-.08-.02-.14.01-.18.05-.05.16-.03.35.08.17.08.32.14.44.18.04-.76.09-1.39.15-1.91.27-2.11.84-4.32,1.71-6.62.1-.29.23-.59.4-.9.05-.06.11-.08.19-.04.3.14.57.37.82.7.06.06.12.15.16.25.05.1.06.19.04.25-.08.26-.23.7-.44,1.3-.21.6-.36,1.06-.46,1.39.29-.25.58-.42.87-.53.21-.07.41-.1.61-.07.34.05.66.22.97.52.35.31.58.62.71.93.15.32.2.72.16,1.2-.04.53-.17,1.09-.4,1.68-.2.54-.55,1.07-1.05,1.61-.46.54-1.07.94-1.82,1.2-.56.19-.96.29-1.23.3ZM149.37,201.27c-.48.75-.9,1.76-1.26,3.03.51-.17.92-.38,1.23-.63.44-.32.84-.76,1.2-1.31.28-.42.5-.91.64-1.47.15-.5.2-.94.18-1.32-.26.05-.57.22-.91.49-.36.31-.72.71-1.08,1.21Z"/>
          <path d="M158.36,205.71c.07.12.05.19-.07.2-.08,0-.16-.01-.23-.04-.27-.08-.53-.22-.76-.42-.23-.2-.41-.42-.54-.68-.41.54-.8.87-1.16,1.01-.16.05-.29.09-.38.1-.42,0-.86-.11-1.31-.35-.36-.19-.65-.41-.86-.66-.22-.25-.33-.54-.33-.89,0-.3.07-.78.25-1.43.06-.23.16-.54.28-.93.12-.4.23-.76.33-1.09.1-.33.18-.65.25-.95.14-.5.2-.91.18-1.21,0-.08.05-.11.16-.1.13,0,.28.06.46.15.11.05.23.14.38.25.14.11.23.2.25.27.04.1.05.3.05.6s0,.53-.03.68c-.03.27-.08.57-.14.89-.07.32-.13.58-.18.78-.05.2-.14.5-.26.91-.12.41-.2.68-.23.81-.14.52-.2.89-.18,1.12.25-.11.48-.25.7-.44.2-.19.43-.46.68-.82.04-.05.09-.12.16-.22.07-.1.12-.18.14-.23.21-.33.41-.7.61-1.13.2-.42.35-.79.47-1.1.12-.31.27-.72.46-1.24.19-.52.33-.9.42-1.15.02-.04.05-.05.1-.05.15,0,.35.05.59.19.24.14.41.27.51.41.04.07.05.11.04.12,0,0-.01.05-.04.12-.03.07-.05.12-.05.14-.26.76-.47,1.44-.63,2.03-.05.21-.12.67-.23,1.38-.12.91-.17,1.56-.15,1.95.02.34.06.6.14.79.03.05.08.13.15.22Z"/>
          <path d="M164.08,205.77c-.03.06-.06.1-.11.1-.12-.02-.23-.06-.33-.14-.31-.21-.55-.46-.71-.75,0,0-.02-.03-.03-.05,0-.04-.02-.05-.03-.03-.45.49-.89.77-1.34.85-.21.04-.42.02-.64-.05-.59-.21-1.06-.52-1.41-.94-.25-.31-.37-.7-.37-1.19-.02-.6.14-1.35.46-2.24.25-.73.51-1.29.79-1.69.38-.57.81-.97,1.28-1.19.28-.14.56-.19.85-.16.41.05.85.23,1.31.56.15-.58.38-1.28.67-2.1.27-.75.48-1.26.63-1.53.05-.08.15-.07.33.04.22.12.42.29.6.5.25.27.35.48.3.61-.07.23-.19.57-.35,1.02-.76,2.09-1.31,4.24-1.67,6.46-.15.96-.23,1.61-.25,1.92ZM160.86,203.1c-.12.56-.16,1.03-.14,1.43.3-.13.68-.43,1.13-.9.22-.23.43-.53.64-.9.31-.56.53-1.18.66-1.84.1-.6.13-1.07.08-1.42,0-.05,0-.06-.01-.05-.3.11-.6.31-.9.61-.39.42-.71.94-.97,1.57-.21.47-.37.97-.49,1.5Z"/>
          <path d="M170.37,205.77c-.03.06-.06.1-.11.1-.12-.02-.23-.06-.33-.14-.31-.21-.55-.46-.71-.75,0,0-.02-.03-.03-.05,0-.04-.02-.05-.03-.03-.45.49-.89.77-1.34.85-.21.04-.42.02-.64-.05-.59-.21-1.06-.52-1.41-.94-.25-.31-.37-.7-.37-1.19-.02-.6.14-1.35.46-2.24.25-.73.51-1.29.79-1.69.38-.57.81-.97,1.28-1.19.28-.14.56-.19.85-.16.41.05.85.23,1.31.56.15-.58.38-1.28.67-2.1.27-.75.48-1.26.63-1.53.05-.08.15-.07.33.04.22.12.42.29.6.5.25.27.35.48.3.61-.07.23-.19.57-.35,1.02-.76,2.09-1.31,4.24-1.67,6.46-.15.96-.23,1.61-.25,1.92ZM167.15,203.1c-.12.56-.16,1.03-.14,1.43.3-.13.68-.43,1.13-.9.22-.23.43-.53.64-.9.31-.56.53-1.18.66-1.84.1-.6.13-1.07.08-1.42,0-.05,0-.06-.01-.05-.3.11-.6.31-.9.61-.39.42-.71.94-.97,1.57-.21.47-.37.97-.49,1.5Z"/>
          <path d="M174.28,208.67c-.47.16-1.01.16-1.6-.01-.39-.12-.71-.26-.94-.42-.24-.16-.39-.33-.45-.5,0,0,.02-.05.05-.11.08,0,.2,0,.35.04.15.04.25.06.29.07.3.05.56.04.79-.03.35-.11.65-.31.9-.61.32-.37.63-.92.93-1.64-.19.19-.38.32-.57.4-.16.05-.32.05-.46.01-.36-.08-.72-.26-1.06-.55-.42-.32-.67-.63-.76-.94-.14-.44-.15-.93-.04-1.49.05-.29.24-.92.56-1.9.2-.66.36-1.3.48-1.91.05-.27.09-.48.1-.61,0-.11,0-.17.03-.19.06-.08.21-.06.44.07.3.15.52.31.67.5.09.13.15.38.17.75.02.37.02.64-.02.79-.06.5-.19,1.03-.38,1.58,0,.05-.08.25-.2.63-.13.37-.21.66-.26.86-.06.33-.1.69-.1,1.08.15-.13.38-.38.7-.75.55-.66,1.04-1.42,1.45-2.31.29-.62.68-1.68,1.17-3.18,0,0,.01-.02.04-.03.03-.01.05-.02.05-.02.24.02.5.15.81.41.2.17.3.31.29.41-.02.09-.1.5-.25,1.24-.15.73-.23,1.15-.25,1.26-.32,1.81-.6,3.13-.85,3.97-.35,1.19-.78,2.07-1.3,2.62-.22.24-.47.41-.75.52Z"/>
        </g>
      </g>
    </g>
  </g>
  <g id="Dimensions">
    <path class="cls-2" d="M242.33,125.76c-4.28-10.28-32.35-14.21-43.81-15.95-20.45-3.12-18.95-18.71-35.43-41.6-.75-1.04-1.15-2.3-1.15-3.59v-3.83c0-2.02,1.64-3.66,3.66-3.66h11.72c6.93,0,12.49-5.96,11.83-13.02-.58-6.16-5.99-10.74-12.17-10.74h-58.69c-5.35,0-9.88,3.55-11.36,8.42l2.67,2.67c.28.28.66.44,1.05.44h7.04l-.41-2.52h59.92c1.39,0,2.68.93,2.95,2.3.36,1.84-1.05,3.46-2.82,3.46h-60.05l.41-2.52h-7.04c-.39,0-.77.16-1.05.44l-2.67,2.67c1.49,4.87,6.02,8.42,11.36,8.42h14.81c2.02,0,3.66,1.64,3.66,3.66v4.29c0,1.04-.29,2.07-.84,2.96-3.01,4.91-13.3,21.73-16.63,28.23-9.6,18.72-25.23,10.54-55.44,22.32-3.59,1.4-7.55,5.86-8.21,9.16-2.21,11.03,17.08,29.63,25.23,37.53,17.42,16.9,3.33,26.2,5.69,61.43.51,7.58,5.95,12.8,13.36,11.93,5.31-.63,11.55-2.05,16.49-4.37l24.46-11.49c5.45-2.56,11.42-2.53,17.27.2l25.85,12.08c6.5,3.04,14.97,4.8,21.96,2.19,10.96-4.1,4.97-38.58,3.28-48.54-3.53-20.84,14.97-24.21,31.59-50.45,2.17-3.43,2.88-9.18,1.51-12.47Z"/>
  </g>
</svg>