<?xml version="1.0" encoding="UTF-8"?>
<svg id="Dimensions" xmlns="http://www.w3.org/2000/svg" viewBox="0 0 288 288">
  <defs>
    <style>
      .cls-1 {
        fill: none;
        stroke: #000;
        stroke-miterlimit: 10;
        stroke-width: .28px;
      }
    </style>
  </defs>
  <path class="cls-1" d="M206.13,75.48c-.01-.8-.61-1.77-1.57-1.77l-19.85-.07-24.4.02c8.04-3.14,12.23-5.19,18.16-11.45,5.97-6.54,8.02-16.02,1.47-22.95-1.63-1.72-3.43-3.15-5.74-3.87-5.07-1.59-10.4-.58-14.7,2.49-2.74,1.95-5.02,4.16-7.25,6.67-3.07,3.52-5.69,7.22-7.87,11.37l-5.19,9.91c-4.62-9.49-8.91-17.75-16.68-24.88-4.58-4.18-10.7-7.73-17.09-5.87-3.09.9-5.93,2.79-7.75,5.46-3.6,5.26-3.55,11.99-.25,17.36,1.93,3.32,4.48,5.96,7.44,8.38,4.03,3.28,8.47,5.33,13.53,7.23l-19.76.12-24.99-.1c-.52.24-1.16.89-1.44,1.38v27.01c.36.47.79.9,1.28,1.31h7.67s-.48,84.79-.48,84.79c.75.69,1.55.98,2.62.99h40.59c2.33.01,4.22,1.9,4.22,4.23v13.24c0,2.07-1.68,3.75-3.75,3.75h-12.91c-6.93,0-12.49,5.96-11.83,13.02.11,1.15.39,2.25.81,3.28,1.12,2.73,3.27,4.92,5.92,6.21,1.66.8,3.51,1.25,5.45,1.25h58.69c.33,0,.67-.01.99-.04.65-.05,1.29-.16,1.91-.32,4.03-1.02,7.25-4.1,8.46-8.06l-2.67-2.67c-.28-.28-.66-.44-1.05-.44h-7.04l.38,2.34c-.31.11-.63.18-.98.18h-58.91c-1.39,0-2.68-.93-2.95-2.3-.14-.69-.02-1.35.27-1.9.48-.92,1.45-1.56,2.56-1.56h59.04c.34,0,.67.07.98.18l-.38,2.34h7.04c.39,0,.77-.16,1.05-.44l2.67-2.67c-1.21-3.95-4.42-7.04-8.46-8.06-.62-.16-1.26-.26-1.91-.32-.33-.03-.66-.04-.99-.04h-13.43c-2.07,0-3.75-1.68-3.75-3.75v-13.23c0-2.33,1.89-4.22,4.22-4.22h.84s38.07.03,38.07.03c.56-.39,1.04-.83,1.34-1.42v-84.41s7.17,0,7.17,0c.49-.36,1.01-.85,1.29-1.37v-20.79s-.09-5.6-.09-5.6ZM162.49,47.13c2.51-2.5,6.58-5.12,9.81-2.97,3.83,2.54,2.77,7.77.35,10.8-2.14,2.68-4.55,5.1-7.49,6.96-5.24,3.33-10.98,5.38-17.42,6.44,4.03-7.73,8.78-15.3,14.74-21.24ZM110.79,59.71c-3.45-2.76-7.24-7.26-6.6-11.96.24-1.77,1.32-3.21,2.67-3.88,1.64-.82,3.39-.57,4.96.36,7.21,4.28,14.93,16.25,18.72,24.1-7.24-1.51-14.14-4.13-19.74-8.62Z"/>
</svg>